<svg width="41" height="40" viewBox="0 0 41 40" fill="none" xmlns="http://www.w3.org/2000/svg">
<circle cx="20.7969" cy="20" r="20" fill="#7378DE"/>
<path d="M17.175 25.5263C17.8385 25.5263 18.3821 26.0814 18.3821 26.7672C18.3821 27.4448 17.8385 28 17.175 28C16.5036 28 15.96 27.4448 15.96 26.7672C15.96 26.0814 16.5036 25.5263 17.175 25.5263ZM26.168 25.5263C26.8315 25.5263 27.3751 26.0814 27.3751 26.7672C27.3751 27.4448 26.8315 28 26.168 28C25.4966 28 24.953 27.4448 24.953 26.7672C24.953 26.0814 25.4966 25.5263 26.168 25.5263ZM13.4566 12.0001L13.538 12.007L15.4445 12.3001C15.7163 12.3499 15.9162 12.5777 15.9402 12.8552L16.092 14.684C16.116 14.9461 16.3239 15.142 16.5797 15.142H27.3752C27.8629 15.142 28.1826 15.3134 28.5024 15.689C28.8221 16.0645 28.8781 16.6034 28.8061 17.0924L28.0467 22.448C27.9028 23.4775 27.0395 24.236 26.0243 24.236H17.3031C16.2399 24.236 15.3606 23.404 15.2727 22.3264L14.5373 13.4267L13.3302 13.2145C13.0104 13.1573 12.7866 12.8389 12.8426 12.5123C12.8985 12.1784 13.2103 11.9572 13.538 12.007L13.4566 12.0001ZM24.7453 18.1619H22.531C22.1953 18.1619 21.9315 18.4313 21.9315 18.7742C21.9315 19.1089 22.1953 19.3865 22.531 19.3865H24.7453C25.081 19.3865 25.3448 19.1089 25.3448 18.7742C25.3448 18.4313 25.081 18.1619 24.7453 18.1619Z" fill="white"/>
</svg>
