<svg width="97" height="100" viewBox="0 0 97 100" fill="none" xmlns="http://www.w3.org/2000/svg">
<path d="M13.0319 22.2704C9.89124 33.3758 4.98026 50.0152 2.53402 57.261C0.090944 64.5043 0.113202 62.3515 0.66294 53.5978C1.21815 44.8479 2.30496 29.4959 3.99994 19.2644C5.70161 9.03161 8.01435 3.92306 10.6027 1.57136C13.1996 -0.788984 16.0728 -0.38503 16.8194 2.60443C17.5681 5.59018 16.1895 11.1639 13.036 22.2692L13.0319 22.2704ZM77.1271 77.8661C67.4685 82.2239 53.3169 90.1669 45.2684 94.752C37.2135 99.3419 35.261 100.583 42.3838 98.6799C49.5079 96.7822 65.7051 91.7448 76.4829 88.2594C87.2712 84.7678 92.6318 82.8306 95.1646 80.3718C97.6965 77.9117 97.3997 74.9288 94.6694 73.8279C91.9334 72.7295 86.7795 73.5071 77.1258 77.8711L77.1271 77.8661ZM77.8421 16.7138C74.6671 17.1485 69.8732 20.2663 62.1514 28.4105C54.435 36.5586 43.7788 49.7343 37.7457 57.2906C31.7187 64.8482 30.3037 66.7788 36.5682 61.8214C42.8224 56.8639 56.7515 45.0159 65.9628 37.0224C75.1772 29.0264 79.6749 24.8862 81.1349 21.6994C82.6016 18.5113 81.0276 16.2729 77.8441 16.7163L77.8421 16.7138Z" fill="#7378DE"/>
</svg>
