<svg width="196" height="181" viewBox="0 0 196 181" fill="none" xmlns="http://www.w3.org/2000/svg">
<path d="M55.253 96.975C55.2548 84.1527 60.324 71.7718 69.5091 62.1561C78.6943 52.5403 91.3639 46.3507 105.14 44.7491C102.776 44.4745 100.396 44.3329 98.013 44.3252C82.8926 44.3264 68.3919 49.8738 57.7002 59.7473C47.0085 69.6208 41.0013 83.0117 41 96.975C41 126.049 66.529 136.463 98.013 136.463C100.436 136.463 102.796 136.39 105.14 136.272C77.013 134.751 55.253 123.827 55.253 96.975Z" fill="#84C45B"/>
<path d="M155.027 96.9749C155.025 84.1526 149.956 71.7718 140.771 62.156C131.586 52.5402 118.916 46.3507 105.14 44.749C91.364 46.3509 78.6946 52.5405 69.5097 62.1563C60.3247 71.772 55.2557 84.1528 55.2539 96.9749C55.2539 123.826 77.0139 134.751 105.14 136.274C133.267 134.751 155.027 123.826 155.027 96.9749Z" fill="#A2E080"/>
<path d="M105.14 44.749C103.007 44.9969 100.892 45.3583 98.8047 45.8313C111.221 48.6151 122.264 55.1703 130.162 64.445C138.06 73.7197 142.355 85.1759 142.357 96.9749C142.357 121.765 123.796 132.967 98.8047 135.746C100.88 135.979 102.986 136.155 105.14 136.272C133.266 134.751 155.026 123.826 155.026 96.9749C155.024 84.1528 149.955 71.772 140.77 62.1563C131.585 52.5405 118.916 46.3509 105.14 44.749Z" fill="#CFF7B5"/>
<path d="M91.6618 86.8543C91.2419 86.8527 90.8389 86.7007 90.5378 86.4304C89.2713 85.2624 87.756 84.35 86.0879 83.7509C84.4197 83.1518 82.635 82.879 80.8468 82.9499C78.061 83.1231 75.4182 84.1527 73.3398 85.8745C73.1859 86.0078 73.0046 86.1113 72.8067 86.1789C72.6088 86.2465 72.3982 86.2769 72.1874 86.2682C71.9766 86.2595 71.7698 86.212 71.5791 86.1284C71.3885 86.0448 71.2179 85.9268 71.0774 85.7814C70.9369 85.636 70.8293 85.4661 70.761 85.2818C70.6927 85.0974 70.665 84.9022 70.6796 84.7078C70.6941 84.5134 70.7507 84.3237 70.8459 84.1497C70.9411 83.9758 71.073 83.8212 71.2338 83.6951C73.8471 81.5425 77.1629 80.256 80.6568 80.0391C82.893 79.9476 85.1255 80.285 87.2134 81.0302C89.3013 81.7753 91.1994 82.9119 92.7878 84.3683C92.9347 84.5036 93.0512 84.6643 93.1307 84.8412C93.2102 85.0181 93.2511 85.2078 93.2511 85.3994C93.2511 85.5909 93.2102 85.7806 93.1307 85.9575C93.0512 86.1344 92.9347 86.2951 92.7878 86.4304C92.4867 86.7007 92.0838 86.8527 91.6638 86.8543H91.6618Z" fill="#0F1141"/>
<path d="M131.065 86.8554C130.645 86.8539 130.242 86.7019 129.941 86.4316C128.671 85.2677 127.155 84.358 125.488 83.7592C123.82 83.1603 122.037 82.8852 120.249 82.951C117.463 83.1243 114.821 84.1539 112.742 85.8756C112.588 86.0089 112.407 86.1124 112.209 86.18C112.011 86.2477 111.801 86.278 111.59 86.2694C111.379 86.2607 111.172 86.2132 110.981 86.1296C110.791 86.046 110.62 85.928 110.48 85.7826C110.339 85.6372 110.232 85.4673 110.163 85.2829C110.095 85.0985 110.067 84.9034 110.082 84.709C110.096 84.5146 110.153 84.3248 110.248 84.1509C110.343 83.977 110.475 83.8224 110.636 83.6963C113.249 81.5437 116.565 80.2572 120.059 80.0402C122.296 79.9419 124.53 80.2762 126.619 81.0217C128.708 81.7672 130.605 82.9075 132.189 84.3695C132.336 84.5047 132.453 84.6654 132.532 84.8424C132.612 85.0193 132.652 85.209 132.652 85.4005C132.652 85.5921 132.612 85.7817 132.532 85.9587C132.453 86.1356 132.336 86.2963 132.189 86.4316C132.042 86.5682 131.867 86.6762 131.674 86.749C131.481 86.8218 131.274 86.858 131.065 86.8554Z" fill="#0F1141"/>
<path d="M100.959 105.515C100.659 105.515 100.341 105.515 100.025 105.486C96.5315 105.266 93.2168 103.979 90.6015 101.83C90.3004 101.569 90.1215 101.21 90.1031 100.829C90.0848 100.448 90.2283 100.076 90.5032 99.7914C90.7781 99.5069 91.1625 99.333 91.5743 99.3066C91.9862 99.2803 92.3928 99.4037 92.7075 99.6504C94.7859 101.372 97.4287 102.402 100.215 102.575C102.003 102.644 103.787 102.371 105.455 101.772C107.123 101.173 108.639 100.261 109.907 99.0945C110.203 98.8239 110.604 98.6726 111.021 98.6738C111.438 98.675 111.838 98.8286 112.133 99.1009C112.428 99.3733 112.594 99.7423 112.595 100.127C112.596 100.513 112.433 100.883 112.14 101.157C109.153 103.886 105.141 105.447 100.94 105.514L100.959 105.515Z" fill="#0F1141"/>
<path d="M172 0H24C10.7452 0 0 9.92283 0 22.1633V158.837C0 171.077 10.7452 181 24 181H172C185.255 181 196 171.077 196 158.837V22.1633C196 9.92283 185.255 0 172 0Z" fill="#B0E899" fill-opacity="0.3"/>
</svg>
