<svg width="1287" height="322" viewBox="0 0 1287 322" fill="none" xmlns="http://www.w3.org/2000/svg">
<g clip-path="url(#clip0_901_1075)">
<rect y="0.545898" width="1287" height="321" rx="50" fill="#EBDDFF"/>
<path d="M1041.36 226.65C1041.36 -164.977 648.371 -482.454 163.594 -482.454C-321.184 -482.454 -714.174 -164.977 -714.174 226.65C-714.174 618.277 -321.184 935.754 163.594 935.754C648.371 935.754 1041.36 618.277 1041.36 226.65Z" fill="#A777ED" fill-opacity="0.2"/>
<path d="M766.387 226.157C766.387 -43.1436 496.15 -261.455 162.795 -261.455C-170.56 -261.455 -440.797 -43.1436 -440.797 226.157C-440.797 495.457 -170.56 713.768 162.795 713.768C496.15 713.768 766.387 495.457 766.387 226.157Z" fill="#A777ED" fill-opacity="0.2"/>
<path d="M521.303 226.65C521.303 67.0533 361.151 -62.3253 163.594 -62.3253C-33.9634 -62.3253 -194.115 67.0533 -194.115 226.65C-194.115 386.246 -33.9634 515.625 163.594 515.625C361.151 515.625 521.303 386.246 521.303 226.65Z" fill="#A777ED" fill-opacity="0.2"/>
<path d="M1179.1 358.546C1338.44 358.546 1467.61 235.424 1467.61 83.5459C1467.61 -68.3324 1338.44 -191.454 1179.1 -191.454C1019.76 -191.454 890.592 -68.3324 890.592 83.5459C890.592 235.424 1019.76 358.546 1179.1 358.546Z" fill="#7378DE"/>
<path d="M1232.73 207.607C1257.58 196.177 1268 167.709 1256.01 144.022C1244.02 120.334 1214.15 110.398 1189.3 121.829C1164.45 133.259 1154.03 161.728 1166.02 185.415C1178.01 209.102 1207.88 219.038 1232.73 207.607Z" fill="#7378DE"/>
<path fill-rule="evenodd" clip-rule="evenodd" d="M986.652 204.111C994.401 204.11 1001.98 201.918 1008.42 197.813C1014.86 193.708 1019.88 187.874 1022.85 181.049C1025.81 174.224 1026.59 166.714 1025.08 159.469C1023.57 152.224 1019.83 145.569 1014.35 140.346C1008.87 135.122 1001.89 131.565 994.29 130.123C986.689 128.682 978.811 129.421 971.65 132.247C964.49 135.073 958.37 139.86 954.063 146.001C949.756 152.142 947.457 159.363 947.455 166.75C947.476 176.653 951.612 186.145 958.958 193.147C966.305 200.149 976.262 204.092 986.652 204.111Z" fill="#7378DE"/>
<path d="M1128.79 110.205C1127.74 110.201 1126.74 109.785 1125.99 109.045C1122.83 105.851 1119.05 103.356 1114.89 101.719C1110.74 100.082 1106.29 99.3382 1101.83 99.5348C1094.89 100.01 1088.31 102.824 1083.14 107.528C1082.75 107.877 1082.3 108.145 1081.81 108.318C1081.32 108.491 1080.81 108.565 1080.29 108.535C1079.77 108.506 1079.27 108.373 1078.8 108.146C1078.34 107.918 1077.92 107.6 1077.58 107.209C1077.23 106.819 1076.97 106.363 1076.79 105.868C1076.62 105.374 1076.55 104.85 1076.58 104.327C1076.61 103.804 1076.74 103.291 1076.96 102.819C1077.19 102.347 1077.5 101.925 1077.89 101.576C1084.4 95.6947 1092.65 92.1795 1101.36 91.5861C1106.92 91.3357 1112.48 92.2573 1117.68 94.2925C1122.88 96.3278 1127.61 99.4327 1131.57 103.411C1131.93 103.781 1132.22 104.22 1132.42 104.703C1132.62 105.187 1132.72 105.705 1132.72 106.228C1132.72 106.751 1132.62 107.27 1132.42 107.753C1132.22 108.236 1131.93 108.675 1131.57 109.045C1130.82 109.785 1129.81 110.201 1128.76 110.205H1128.79Z" fill="#0F1141"/>
<path d="M1226.91 110.211C1225.86 110.207 1224.86 109.791 1224.11 109.051C1220.94 105.868 1217.17 103.381 1213.01 101.745C1208.85 100.109 1204.41 99.3585 1199.95 99.5408C1193.02 100.016 1186.43 102.83 1181.26 107.534C1180.87 107.883 1180.42 108.151 1179.94 108.324C1179.45 108.497 1178.93 108.571 1178.41 108.541C1177.9 108.512 1177.39 108.379 1176.93 108.152C1176.46 107.924 1176.04 107.606 1175.7 107.215C1175.35 106.825 1175.09 106.369 1174.92 105.874C1174.75 105.38 1174.67 104.856 1174.7 104.333C1174.73 103.81 1174.86 103.297 1175.09 102.825C1175.31 102.353 1175.63 101.931 1176.01 101.582C1182.52 95.7007 1190.78 92.1855 1199.48 91.5921C1205.05 91.3225 1210.61 92.2351 1215.82 94.2715C1221.02 96.3078 1225.75 99.423 1229.69 103.417C1230.06 103.787 1230.35 104.226 1230.54 104.709C1230.74 105.193 1230.84 105.711 1230.84 106.234C1230.84 106.757 1230.74 107.276 1230.54 107.759C1230.35 108.242 1230.06 108.681 1229.69 109.051C1229.32 109.425 1228.89 109.721 1228.41 109.92C1227.92 110.12 1227.41 110.218 1226.89 110.211H1226.91Z" fill="#0F1141"/>
<path d="M1151.95 161.196C1151.2 161.196 1150.41 161.196 1149.62 161.118C1140.92 160.516 1132.67 157.001 1126.15 151.128C1125.38 150.423 1124.91 149.434 1124.85 148.377C1124.79 147.321 1125.15 146.284 1125.84 145.494C1126.54 144.705 1127.51 144.228 1128.56 144.169C1129.6 144.109 1130.62 144.471 1131.4 145.176C1136.58 149.88 1143.16 152.694 1150.09 153.169C1154.55 153.361 1159 152.615 1163.16 150.978C1167.32 149.342 1171.09 146.849 1174.25 143.659C1174.99 142.933 1175.99 142.531 1177.02 142.54C1178.05 142.549 1179.04 142.968 1179.77 143.707C1180.5 144.446 1180.91 145.445 1180.92 146.49C1180.93 147.535 1180.53 148.541 1179.81 149.293C1172.38 156.748 1162.39 161.014 1151.93 161.201L1151.95 161.196Z" fill="#0F1141"/>
</g>
<defs>
<clipPath id="clip0_901_1075">
<rect y="0.545898" width="1287" height="321" rx="50" fill="white"/>
</clipPath>
</defs>
</svg>
