<svg width="2003" height="500" viewBox="0 0 2003 500" fill="none" xmlns="http://www.w3.org/2000/svg">
<g clip-path="url(#clip0_1054_12)">
<rect width="2003" height="500" rx="50" fill="#EBDDFF"/>
<path d="M1620.7 352.187C1620.7 -257.825 1009.08 -752.337 254.607 -752.337C-499.868 -752.337 -1111.49 -257.825 -1111.49 352.187C-1111.49 962.198 -499.868 1456.71 254.607 1456.71C1009.08 1456.71 1620.7 962.198 1620.7 352.187Z" fill="#A777ED" fill-opacity="0.2"/>
<path d="M1192.75 351.418C1192.75 -68.0529 772.175 -408.101 253.364 -408.101C-265.446 -408.101 -686.025 -68.0529 -686.025 351.418C-686.025 770.888 -265.446 1110.94 253.364 1110.94C772.175 1110.94 1192.75 770.888 1192.75 351.418Z" fill="#A777ED" fill-opacity="0.2"/>
<path d="M811.323 352.187C811.323 103.594 562.074 -97.9304 254.609 -97.9304C-52.856 -97.9304 -302.105 103.594 -302.105 352.187C-302.105 600.779 -52.856 802.304 254.609 802.304C562.074 802.304 811.323 600.779 811.323 352.187Z" fill="#A777ED" fill-opacity="0.2"/>
<path d="M1835.07 557.632C2083.05 557.632 2284.09 365.854 2284.09 129.284C2284.09 -107.287 2083.05 -299.065 1835.07 -299.065C1587.09 -299.065 1386.06 -107.287 1386.06 129.284C1386.06 365.854 1587.09 557.632 1835.07 557.632Z" fill="#7378DE"/>
<path d="M1918.54 322.526C1957.21 304.722 1973.44 260.379 1954.77 223.483C1936.11 186.587 1889.63 171.11 1850.95 188.915C1812.27 206.719 1796.05 251.062 1814.71 287.958C1833.38 324.854 1879.86 340.331 1918.54 322.526Z" fill="#7378DE"/>
<path fill-rule="evenodd" clip-rule="evenodd" d="M1535.56 317.08C1547.62 317.078 1559.41 313.663 1569.44 307.269C1579.47 300.875 1587.28 291.788 1591.9 281.157C1596.51 270.526 1597.72 258.829 1595.36 247.544C1593.01 236.259 1587.2 225.893 1578.67 217.757C1570.14 209.62 1559.28 204.079 1547.45 201.834C1535.62 199.589 1523.36 200.74 1512.21 205.142C1501.07 209.544 1491.54 216.999 1484.84 226.565C1478.14 236.131 1474.56 247.379 1474.56 258.885C1474.59 274.31 1481.03 289.094 1492.46 300.001C1503.89 310.908 1519.39 317.05 1535.56 317.08Z" fill="#7378DE"/>
<path d="M1756.77 170.808C1755.14 170.802 1753.58 170.154 1752.41 169.002C1747.5 164.026 1741.62 160.141 1735.15 157.591C1728.67 155.041 1721.75 153.882 1714.81 154.188C1704.02 154.929 1693.77 159.312 1685.72 166.638C1685.12 167.182 1684.42 167.6 1683.66 167.87C1682.9 168.139 1682.09 168.254 1681.29 168.208C1680.49 168.162 1679.7 167.956 1678.98 167.601C1678.25 167.247 1677.6 166.751 1677.06 166.143C1676.53 165.534 1676.12 164.824 1675.85 164.054C1675.58 163.283 1675.47 162.467 1675.52 161.652C1675.56 160.838 1675.77 160.04 1676.11 159.305C1676.46 158.569 1676.95 157.911 1677.55 157.368C1687.68 148.207 1700.53 142.731 1714.08 141.807C1722.74 141.417 1731.39 142.853 1739.49 146.023C1747.58 149.193 1754.94 154.029 1761.09 160.227C1761.66 160.802 1762.11 161.486 1762.42 162.239C1762.73 162.992 1762.89 163.799 1762.89 164.614C1762.89 165.429 1762.73 166.236 1762.42 166.989C1762.11 167.742 1761.66 168.426 1761.09 169.002C1759.93 170.154 1758.36 170.802 1756.73 170.808H1756.77Z" fill="#0F1141"/>
<path d="M1909.48 170.818C1907.85 170.812 1906.29 170.164 1905.12 169.011C1900.19 164.054 1894.31 160.18 1887.84 157.631C1881.38 155.083 1874.46 153.914 1867.52 154.198C1856.73 154.938 1846.49 159.321 1838.43 166.648C1837.83 167.191 1837.13 167.61 1836.37 167.879C1835.61 168.148 1834.81 168.263 1834 168.217C1833.2 168.171 1832.41 167.965 1831.69 167.611C1830.96 167.256 1830.31 166.761 1829.78 166.152C1829.24 165.543 1828.83 164.833 1828.56 164.063C1828.3 163.293 1828.18 162.477 1828.23 161.662C1828.27 160.847 1828.48 160.049 1828.83 159.314C1829.18 158.579 1829.66 157.921 1830.26 157.377C1840.39 148.216 1853.24 142.741 1866.79 141.817C1875.46 141.397 1884.12 142.818 1892.21 145.99C1900.31 149.162 1907.67 154.014 1913.8 160.236C1914.37 160.812 1914.83 161.495 1915.13 162.248C1915.44 163.001 1915.6 163.808 1915.6 164.623C1915.6 165.439 1915.44 166.246 1915.13 166.998C1914.83 167.751 1914.37 168.435 1913.8 169.011C1913.24 169.594 1912.56 170.055 1911.81 170.365C1911.06 170.676 1910.25 170.83 1909.44 170.818H1909.48Z" fill="#0F1141"/>
<path d="M1792.82 250.234C1791.65 250.234 1790.43 250.234 1789.19 250.112C1775.65 249.174 1762.81 243.7 1752.67 234.552C1751.46 233.454 1750.73 231.913 1750.63 230.267C1750.54 228.621 1751.1 227.006 1752.18 225.777C1753.27 224.547 1754.79 223.804 1756.41 223.712C1758.03 223.619 1759.63 224.183 1760.84 225.281C1768.89 232.608 1779.13 236.991 1789.93 237.731C1796.87 238.03 1803.79 236.868 1810.26 234.319C1816.73 231.769 1822.61 227.887 1827.53 222.918C1828.68 221.787 1830.23 221.161 1831.83 221.175C1833.44 221.189 1834.97 221.842 1836.11 222.992C1837.24 224.143 1837.89 225.7 1837.9 227.327C1837.91 228.955 1837.3 230.522 1836.18 231.693C1824.61 243.306 1809.07 249.95 1792.79 250.242L1792.82 250.234Z" fill="#0F1141"/>
</g>
<defs>
<clipPath id="clip0_1054_12">
<rect width="2003" height="500" rx="50" fill="white"/>
</clipPath>
</defs>
</svg>
