<svg width="42" height="41" viewBox="0 0 42 41" fill="none" xmlns="http://www.w3.org/2000/svg">
<mask id="mask0_901_1315" style="mask-type:luminance" maskUnits="userSpaceOnUse" x="0" y="0" width="42" height="41">
<path d="M0.994141 0H41.8941V40.9H0.994141V0Z" fill="white"/>
</mask>
<g mask="url(#mask0_901_1315)">
<path d="M41.8467 14.2457C41.1465 11.9448 33.8264 13.2082 32.3875 11.4596C30.8963 9.64647 33.5221 2.72576 31.4831 1.63797C29.4441 0.550188 25.1576 6.58479 22.8213 6.3555C20.5678 6.13459 17.5411 -0.649534 15.2398 0.0506735C12.939 0.750388 14.2023 8.07051 12.4538 9.50939C10.6411 11.001 3.7199 8.37476 2.63212 10.4137C1.54433 12.4527 7.57893 16.7393 7.35013 19.0756C7.12873 21.3291 0.344607 24.3558 1.04481 26.6571C1.74453 28.9584 9.06515 27.6946 10.5035 29.4436C11.9952 31.2563 9.36939 38.177 11.4084 39.2648C13.4474 40.353 17.7334 34.3179 20.0697 34.5467C22.3232 34.7681 25.3499 41.5523 27.6512 40.8521C29.9525 40.1523 28.6887 32.8322 30.4377 31.3933C32.2504 29.9022 39.1711 32.528 40.2594 30.489C41.3472 28.45 35.3121 24.1635 35.5414 21.8271C35.7623 19.5736 42.5464 16.547 41.8467 14.2457Z" fill="#9199F2"/>
</g>
<path d="M19.9381 32.6593C20.0446 32.6593 20.1511 32.6648 20.2546 32.6751C22.0767 32.8536 23.4909 34.6096 24.9889 36.4686C25.4953 37.0973 26.3953 38.2147 27.0136 38.7526C27.2276 37.9617 27.3529 36.5327 27.4234 35.7284C27.6325 33.3497 27.8292 31.1036 29.2434 29.9409C30.2375 29.1228 31.597 29.0286 32.5329 29.0286C33.4501 29.0286 34.4555 29.1332 35.4284 29.2352C36.3012 29.3265 37.2036 29.4206 37.9186 29.4206C38.0365 29.4206 38.1474 29.4182 38.2505 29.4128C37.8397 28.7476 37.0621 27.8151 36.5285 27.1746C34.9634 25.2963 33.4856 23.5231 33.67 21.6434C33.8485 19.8214 35.6045 18.4067 37.4635 16.9091C38.0927 16.4027 39.2096 15.5028 39.748 14.8844C38.9566 14.6709 37.5281 14.5452 36.7238 14.4747C34.3451 14.2661 32.099 14.0688 30.9358 12.6546C29.736 11.1965 29.9762 8.90062 30.2301 6.47011C30.3169 5.63775 30.4441 4.4257 30.4136 3.64462C29.7484 4.05439 28.8125 4.8335 28.1704 5.36901C26.3958 6.84783 24.7207 8.2438 22.9554 8.2438C22.8494 8.2438 22.7423 8.23838 22.6388 8.22802C20.8168 8.04952 19.4021 6.29358 17.9045 4.43458C17.3981 3.80587 16.4982 2.6885 15.8798 2.15052C15.6658 2.94097 15.5406 4.36899 15.4701 5.17226C15.261 7.55297 15.0637 9.79905 13.65 10.9628C12.6559 11.7799 11.2964 11.875 10.3605 11.875C9.44285 11.875 8.43741 11.77 7.46451 11.6679C6.59073 11.5767 5.68885 11.4825 4.97483 11.4825C4.85649 11.4825 4.74554 11.485 4.64297 11.4904C5.05373 12.1556 5.83135 13.0885 6.36539 13.7296C7.92951 15.6068 9.40784 17.38 9.22342 19.2593C9.04442 21.0813 7.28848 22.496 5.42948 23.994C4.80077 24.5005 3.68389 25.4004 3.14542 26.0187C3.93685 26.2322 5.36586 26.3575 6.16962 26.4285C8.54786 26.6371 10.7944 26.8343 11.9577 28.248C13.1574 29.7066 12.9173 32.0025 12.6633 34.4335C12.576 35.2659 12.4493 36.4774 12.4799 37.2585C13.1456 36.8488 14.081 36.0692 14.724 35.5332C16.4972 34.0553 18.1723 32.6593 19.9381 32.6593ZM27.1024 39.2147C27.0659 39.2147 27.0309 39.2033 27.0013 39.1816C26.3558 38.7112 25.3336 37.442 24.7222 36.6831C23.271 34.8818 21.9006 33.1801 20.2211 33.0154C20.1284 33.0065 20.0332 33.0016 19.9381 33.0016C18.296 33.0016 16.6673 34.3591 14.9429 35.796C14.2102 36.4064 13.1032 37.329 12.4074 37.6939C12.3576 37.7201 12.2974 37.7201 12.2476 37.6934C12.1978 37.6668 12.1643 37.617 12.1584 37.5608C12.074 36.7797 12.224 35.3463 12.3226 34.3975C12.5691 32.04 12.8024 29.8136 11.6934 28.4655C10.6214 27.1627 8.4448 26.9714 6.14004 26.7692C5.16961 26.6839 3.54631 26.5414 2.79581 26.2677C2.74551 26.2495 2.70656 26.2086 2.69078 26.1568C2.67549 26.1055 2.68486 26.0498 2.71642 26.0064C3.18733 25.3609 4.45658 24.3382 5.21498 23.7273C7.01678 22.2761 8.71798 20.9052 8.88268 19.2262C9.05329 17.489 7.61984 15.7691 6.10256 13.948C5.49456 13.2192 4.57641 12.1171 4.20855 11.4214C4.18242 11.3711 4.18242 11.3114 4.20855 11.2611C4.23518 11.2113 4.28449 11.1778 4.3407 11.1714C4.52167 11.1511 4.73469 11.1403 4.97483 11.1403C5.7066 11.1403 6.61736 11.2355 7.49854 11.3277C8.46453 11.4288 9.4606 11.5328 10.3605 11.5328C11.2437 11.5328 12.5238 11.4465 13.4326 10.6985C14.7358 9.62647 14.9271 7.44941 15.1293 5.14514C15.2141 4.17323 15.3571 2.55043 15.6303 1.80091C15.6491 1.75061 15.69 1.71166 15.7413 1.69588C15.7925 1.6801 15.8488 1.68996 15.8922 1.72152C16.5371 2.19194 17.5598 3.46168 18.1708 4.22008C19.622 6.02139 20.9928 7.72309 22.6723 7.88778C22.765 7.89715 22.8602 7.90159 22.9554 7.90159C24.5969 7.90159 26.2256 6.54408 27.9495 5.10766C28.6838 4.49572 29.7903 3.57362 30.4856 3.20921C30.5359 3.18308 30.5955 3.18308 30.6453 3.20971C30.6956 3.23633 30.7291 3.28614 30.7351 3.34235C30.8194 4.12343 30.6695 5.55688 30.5704 6.50561C30.3238 8.86314 30.0911 11.0895 31.1996 12.4377C32.2716 13.7404 34.4486 13.9318 36.7534 14.1339C37.7238 14.2192 39.3471 14.3617 40.0971 14.6354C40.1479 14.6542 40.1864 14.6951 40.2022 14.7464C40.2179 14.7976 40.2081 14.8539 40.177 14.8973C39.7061 15.5422 38.4369 16.5649 37.6785 17.1759C35.8767 18.6271 34.175 19.9979 34.0103 21.6769C33.8396 23.4141 35.2731 25.1341 36.7909 26.9546C37.3989 27.6844 38.317 28.7865 38.6844 29.4818C38.711 29.5321 38.711 29.5917 38.6844 29.642C38.6583 29.6918 38.6089 29.7259 38.5527 29.7318C38.3723 29.7525 38.1592 29.7629 37.9191 29.7629C37.1859 29.7629 36.2741 29.6672 35.3929 29.5755C34.4289 29.4749 33.4328 29.3703 32.5329 29.3703C31.6493 29.3703 30.3697 29.4571 29.4609 30.2047C28.1576 31.2767 27.9663 33.4532 27.7641 35.758C27.6788 36.7284 27.5368 38.3517 27.2626 39.1022C27.2444 39.153 27.2035 39.1915 27.1522 39.2073C27.1354 39.2122 27.1191 39.2147 27.1024 39.2147Z" fill="white"/>
</svg>
