<svg width="118" height="30" viewBox="0 0 118 30" fill="none" xmlns="http://www.w3.org/2000/svg">
<g clip-path="url(#clip0_901_1052)">
<path fill-rule="evenodd" clip-rule="evenodd" d="M29.0131 27.8232C30.8276 28.8376 32.8747 29.3514 34.9485 29.3132C37.0271 29.3497 39.079 28.836 40.8998 27.8232C42.6199 26.8645 44.0291 25.4249 44.9584 23.6772C45.9323 21.8184 46.4183 19.7386 46.37 17.6363C46.4095 15.5342 45.9064 13.458 44.9102 11.6116C43.9767 9.86722 42.5684 8.42866 40.8517 7.46561C39.0309 6.45275 36.979 5.93904 34.9003 5.97563C32.8267 5.93733 30.7795 6.45123 28.9651 7.46561C27.258 8.43066 25.8607 9.86945 24.9386 11.6116C23.9425 13.458 23.4394 15.5342 23.4789 17.6363C23.4381 19.7437 23.9411 21.8256 24.9386 23.6772C25.878 25.4227 27.2916 26.8612 29.0131 27.8232ZM38.8466 17.6363C38.8466 20.8754 37.5472 22.4949 34.9485 22.4949C32.3497 22.4949 31.0985 20.8754 31.0985 17.6363C31.0985 14.3972 32.3819 12.6967 34.9485 12.6967C37.5151 12.6967 38.8466 14.3486 38.8466 17.6363Z" fill="white"/>
<path fill-rule="evenodd" clip-rule="evenodd" d="M2.93088 11.6286C1.92797 13.4964 1.41963 15.5938 1.45507 17.7181C1.41744 19.8426 1.92591 21.9406 2.93088 23.8076C3.88707 25.5584 5.32438 26.9925 7.06958 27.9374C8.97501 28.9373 11.0985 29.4385 13.2455 29.395C14.8573 29.4455 16.4594 29.1243 17.9297 28.4556C19.1047 27.9171 20.1377 27.1071 20.9455 26.0911C21.5751 25.3025 21.915 24.3183 21.9079 23.3055C21.9294 22.8856 21.8536 22.4664 21.6865 22.0813C21.5194 21.6961 21.2657 21.3556 20.9455 21.0867C20.3378 20.5616 19.5637 20.2742 18.7638 20.277C18.0212 20.316 17.309 20.5877 16.7265 21.0543L16.0047 21.7022C15.6927 21.9888 15.3415 22.2288 14.962 22.4148C14.4099 22.6269 13.8188 22.7153 13.2295 22.6739C12.6495 22.7071 12.0696 22.6045 11.5354 22.3742C11.0011 22.1438 10.5269 21.7918 10.1496 21.3459C9.38018 20.3079 8.99943 19.0285 9.07476 17.7343C8.99943 16.4401 9.38018 15.1607 10.1496 14.1227C10.5276 13.6777 11.0021 13.3264 11.5361 13.0962C12.0702 12.8659 12.6496 12.7628 13.2295 12.7947C13.7817 12.7767 14.3307 12.8876 14.8336 13.1187C15.2518 13.341 15.6311 13.6309 15.9565 13.977C16.1884 14.2396 16.4404 14.4833 16.7105 14.7057C17.2941 15.1638 18.0087 15.4194 18.7477 15.4346C19.15 15.4306 19.5474 15.3455 19.9165 15.1842C20.2857 15.0229 20.6191 14.7886 20.8973 14.4952C21.2163 14.1963 21.4684 13.8324 21.6371 13.4275C21.8058 13.0226 21.8872 12.586 21.8759 12.1469C21.8886 11.1309 21.5544 10.1415 20.9293 9.34509C20.1165 8.33842 19.0845 7.53478 17.9136 6.99677C16.4352 6.33584 14.8297 6.015 13.2135 6.05743C11.0718 6.01667 8.95418 6.51775 7.05354 7.51501C5.31318 8.45346 3.88078 9.88269 2.93088 11.6286Z" fill="white"/>
<path fill-rule="evenodd" clip-rule="evenodd" d="M74.1535 11.6282C73.1506 13.4959 72.6423 15.5934 72.6777 17.7177C72.6401 19.8421 73.1486 21.9402 74.1535 23.8071C75.1155 25.5591 76.5582 26.9931 78.3083 27.9369C80.209 28.9342 82.3266 29.4353 84.4682 29.3945C86.0849 29.4447 87.6924 29.1235 89.1685 28.4552C90.3385 27.9081 91.3694 27.0995 92.1842 26.0907C92.8022 25.2967 93.1354 24.3148 93.1303 23.305C93.1566 22.8814 93.0846 22.4575 92.9201 22.0668C92.7556 21.6761 92.5038 21.3293 92.1842 21.0539C91.5763 20.5287 90.8022 20.2413 90.0027 20.2441C89.2643 20.2649 88.5512 20.5199 87.9654 20.9729L87.2269 21.6207C86.9183 21.911 86.5665 22.1513 86.1849 22.3334C85.6406 22.5567 85.0546 22.6563 84.4682 22.6249C83.888 22.6593 83.3079 22.5574 82.7734 22.3269C82.2389 22.0964 81.7647 21.7438 81.3883 21.2968C80.6131 20.2611 80.2267 18.9814 80.2974 17.6853C80.2267 16.3891 80.6131 15.1095 81.3883 14.0737C81.7647 13.6267 82.2389 13.2741 82.7734 13.0437C83.3079 12.8132 83.888 12.7112 84.4682 12.7456C85.0207 12.7247 85.5704 12.8356 86.0722 13.0695C86.4953 13.2914 86.8802 13.5813 87.2117 13.9279C87.4431 14.185 87.6898 14.4284 87.9493 14.6567C88.5343 15.1127 89.2481 15.3681 89.9866 15.3855C90.8031 15.3747 91.5822 15.0368 92.152 14.4462C92.4656 14.144 92.7132 13.779 92.8794 13.3747C93.0447 12.9703 93.1253 12.5354 93.1142 12.0979C93.1354 11.0805 92.8005 10.0885 92.1681 9.29606C91.355 8.28937 90.3232 7.48573 89.1523 6.94772C87.6788 6.28813 86.079 5.96728 84.4682 6.00839C82.3212 5.96491 80.1977 6.46608 78.2923 7.46598C76.5437 8.40624 75.1053 9.84163 74.1535 11.5958V11.6282Z" fill="white"/>
<path fill-rule="evenodd" clip-rule="evenodd" d="M117.755 17.7177C117.755 9.94397 114.546 6.05708 108.13 6.05708C106.391 6.03262 104.694 6.60346 103.318 7.67661V4.16222C103.382 1.37661 102.163 0 99.7084 0C97.2539 0 95.9864 1.37661 95.9864 4.16222V25.2162C95.9144 26.3296 96.2391 27.4324 96.9012 28.3257C97.2565 28.7108 97.6939 29.0097 98.1797 29.2004C98.6656 29.3911 99.1887 29.4686 99.7084 29.427C102.163 29.427 103.382 28.018 103.382 25.2162V18.1713C103.305 16.7501 103.558 15.3304 104.12 14.0252C104.463 13.6186 104.889 13.2921 105.37 13.0682C105.851 12.8443 106.374 12.7283 106.903 12.7283C107.432 12.7283 107.955 12.8443 108.435 13.0682C108.916 13.2921 109.342 13.6186 109.686 14.0252C110.237 15.3331 110.478 16.7526 110.392 18.1713V25.1676C110.392 27.9694 111.611 29.3784 114.065 29.3784C114.585 29.4212 115.108 29.3443 115.594 29.1535C116.081 28.9628 116.517 28.6631 116.873 28.2771C117.535 27.3838 117.859 26.281 117.787 25.1676V17.7177H117.755Z" fill="white"/>
<path fill-rule="evenodd" clip-rule="evenodd" d="M69.855 9.40952C69.8946 9.00675 69.8291 8.60055 69.6648 8.23129C69.5006 7.86207 69.2433 7.54276 68.9188 7.30519C68.5942 7.06761 68.2136 6.92007 67.8149 6.87725C67.4163 6.83444 67.0135 6.89786 66.6466 7.06118C61.8342 8.9884 61.4653 14.1061 61.4653 18.5275C61.4653 21.6694 61.6097 25.0057 59.5885 25.0057C57.5672 25.0057 57.8079 21.7666 57.8079 18.7867C57.8079 14.1223 57.5993 9.0694 52.3859 7.14215C50.8137 6.47814 49.5785 7.66041 49.5785 9.44192C49.4823 13.8146 49.4983 20.1146 50.3807 22.4953C51.0102 24.4924 52.2524 26.2355 53.9278 27.4729C55.6032 28.7101 57.6249 29.3775 59.7007 29.3784C61.831 29.3832 63.9062 28.6961 65.62 27.4188C67.2249 26.1732 68.4393 24.486 69.117 22.5601C69.9994 20.2442 69.9672 13.847 69.855 9.40952Z" fill="white"/>
<path fill-rule="evenodd" clip-rule="evenodd" d="M59.6523 0C60.4105 0 61.1518 0.227013 61.7823 0.65233C62.4128 1.07765 62.9042 1.68217 63.1944 2.38945C63.4846 3.09672 63.5605 3.87499 63.4125 4.62583C63.2646 5.37668 62.8995 6.06637 62.3632 6.6077C61.8271 7.14902 61.144 7.51766 60.4003 7.66702C59.6566 7.81637 58.8857 7.73972 58.1852 7.44675C57.4846 7.15379 56.8858 6.65768 56.4645 6.02114C56.0432 5.3846 55.8184 4.63625 55.8184 3.87069C55.8184 2.84413 56.2223 1.8596 56.9413 1.1337C57.6603 0.407804 58.6354 0 59.6523 0Z" fill="#FCAD15"/>
</g>
<defs>
<clipPath id="clip0_901_1052">
<rect width="117" height="30" fill="white" transform="translate(0.796875)"/>
</clipPath>
</defs>
</svg>
