<svg width="1440" height="563" viewBox="0 0 1440 563" fill="none" xmlns="http://www.w3.org/2000/svg">
<g clip-path="url(#clip0_909_2229)">
<rect width="1440" height="563" fill="#7378DE"/>
<g clip-path="url(#clip1_909_2229)">
<path fill-rule="evenodd" clip-rule="evenodd" d="M718.822 302.259C720.289 303.07 721.945 303.482 723.622 303.451C725.303 303.48 726.963 303.069 728.436 302.259C729.827 301.492 730.966 300.34 731.718 298.942C732.506 297.455 732.899 295.791 732.86 294.109C732.892 292.428 732.485 290.767 731.679 289.29C730.924 287.894 729.785 286.743 728.397 285.973C726.924 285.163 725.264 284.752 723.583 284.781C721.906 284.75 720.25 285.161 718.783 285.973C717.402 286.745 716.272 287.896 715.526 289.29C714.721 290.767 714.314 292.428 714.346 294.109C714.313 295.795 714.719 297.461 715.526 298.942C716.286 300.339 717.429 301.489 718.822 302.259ZM726.775 294.109C726.775 296.701 725.724 297.996 723.622 297.996C721.52 297.996 720.508 296.701 720.508 294.109C720.508 291.518 721.546 290.158 723.622 290.158C725.698 290.158 726.775 291.479 726.775 294.109Z" fill="#7378DE"/>
<path fill-rule="evenodd" clip-rule="evenodd" d="M697.726 289.303C696.915 290.797 696.504 292.475 696.533 294.174C696.502 295.874 696.914 297.552 697.726 299.046C698.5 300.447 699.662 301.594 701.074 302.35C702.615 303.15 704.332 303.551 706.069 303.516C707.372 303.556 708.668 303.299 709.857 302.764C710.808 302.333 711.643 301.686 712.296 300.873C712.806 300.242 713.081 299.454 713.075 298.644C713.092 298.308 713.031 297.973 712.896 297.665C712.761 297.357 712.555 297.084 712.296 296.869C711.805 296.449 711.179 296.219 710.532 296.221C709.931 296.253 709.355 296.47 708.884 296.843L708.3 297.362C708.048 297.591 707.764 297.783 707.457 297.932C707.011 298.101 706.532 298.172 706.056 298.139C705.587 298.165 705.118 298.083 704.686 297.899C704.254 297.715 703.87 297.433 703.565 297.076C702.943 296.246 702.635 295.223 702.696 294.187C702.635 293.152 702.943 292.128 703.565 291.298C703.871 290.942 704.254 290.661 704.686 290.477C705.118 290.293 705.587 290.21 706.056 290.236C706.503 290.221 706.947 290.31 707.353 290.495C707.691 290.673 707.998 290.905 708.261 291.181C708.449 291.392 708.653 291.586 708.871 291.764C709.343 292.131 709.921 292.335 710.519 292.347C710.844 292.344 711.166 292.276 711.464 292.147C711.763 292.018 712.033 291.831 712.258 291.596C712.515 291.357 712.719 291.066 712.856 290.742C712.992 290.418 713.058 290.069 713.049 289.717C713.059 288.905 712.789 288.113 712.283 287.476C711.626 286.671 710.791 286.028 709.844 285.597C708.649 285.068 707.35 284.812 706.043 284.846C704.311 284.813 702.598 285.214 701.061 286.012C699.653 286.763 698.495 287.906 697.726 289.303Z" fill="#7378DE"/>
<path fill-rule="evenodd" clip-rule="evenodd" d="M755.33 289.302C754.519 290.797 754.108 292.475 754.136 294.174C754.106 295.873 754.517 297.552 755.33 299.046C756.108 300.447 757.275 301.594 758.69 302.349C760.228 303.147 761.94 303.548 763.672 303.515C764.98 303.556 766.28 303.299 767.474 302.764C768.42 302.326 769.254 301.679 769.913 300.872C770.413 300.237 770.682 299.452 770.678 298.644C770.699 298.305 770.641 297.966 770.508 297.653C770.375 297.341 770.171 297.063 769.913 296.843C769.421 296.423 768.795 296.193 768.149 296.195C767.551 296.212 766.975 296.416 766.501 296.778L765.904 297.296C765.654 297.529 765.369 297.721 765.061 297.867C764.621 298.045 764.147 298.125 763.672 298.1C763.203 298.127 762.734 298.046 762.302 297.861C761.869 297.677 761.486 297.395 761.181 297.037C760.554 296.209 760.242 295.185 760.299 294.148C760.242 293.111 760.554 292.087 761.181 291.259C761.486 290.901 761.869 290.619 762.302 290.435C762.734 290.25 763.203 290.169 763.672 290.196C764.119 290.18 764.564 290.268 764.97 290.455C765.312 290.633 765.623 290.865 765.891 291.142C766.078 291.348 766.278 291.543 766.488 291.725C766.961 292.09 767.538 292.294 768.136 292.308C768.796 292.3 769.426 292.029 769.887 291.557C770.141 291.315 770.341 291.023 770.475 290.7C770.609 290.376 770.674 290.028 770.665 289.678C770.682 288.864 770.411 288.071 769.9 287.437C769.242 286.631 768.408 285.988 767.461 285.558C766.269 285.03 764.975 284.774 763.672 284.807C761.936 284.772 760.218 285.173 758.677 285.973C757.263 286.725 756.1 287.873 755.33 289.276V289.302Z" fill="#7378DE"/>
<path fill-rule="evenodd" clip-rule="evenodd" d="M790.595 294.174C790.595 287.955 787.999 284.846 782.81 284.846C781.404 284.826 780.031 285.283 778.918 286.141V283.33C778.97 281.101 777.984 280 775.999 280C774.014 280 772.988 281.101 772.988 283.33V300.173C772.93 301.064 773.193 301.946 773.728 302.661C774.016 302.969 774.369 303.208 774.762 303.36C775.155 303.513 775.578 303.575 775.999 303.542C777.984 303.542 778.97 302.414 778.97 300.173V294.537C778.908 293.4 779.112 292.264 779.566 291.22C779.844 290.895 780.189 290.634 780.578 290.455C780.967 290.275 781.39 290.183 781.818 290.183C782.246 290.183 782.669 290.275 783.057 290.455C783.446 290.634 783.79 290.895 784.068 291.22C784.514 292.266 784.709 293.402 784.639 294.537V300.134C784.639 302.376 785.625 303.503 787.611 303.503C788.031 303.537 788.454 303.475 788.847 303.323C789.241 303.17 789.594 302.93 789.881 302.622C790.417 301.907 790.679 301.025 790.62 300.134V294.174H790.595Z" fill="#7378DE"/>
<path fill-rule="evenodd" clip-rule="evenodd" d="M751.853 287.527C751.885 287.205 751.832 286.88 751.699 286.585C751.567 286.289 751.359 286.034 751.096 285.844C750.833 285.654 750.526 285.536 750.203 285.502C749.881 285.467 749.555 285.518 749.258 285.649C745.366 287.191 745.068 291.285 745.068 294.822C745.068 297.335 745.184 300.004 743.55 300.004C741.915 300.004 742.11 297.413 742.11 295.029C742.11 291.298 741.941 287.255 737.724 285.714C736.453 285.182 735.454 286.128 735.454 287.553C735.376 291.052 735.389 296.092 736.103 297.996C736.612 299.594 737.616 300.988 738.971 301.978C740.326 302.968 741.962 303.502 743.641 303.503C745.363 303.506 747.042 302.957 748.428 301.935C749.726 300.938 750.708 299.589 751.256 298.048C751.97 296.195 751.944 291.077 751.853 287.527Z" fill="#7378DE"/>
<path fill-rule="evenodd" clip-rule="evenodd" d="M743.603 280C744.216 280 744.816 280.182 745.326 280.522C745.835 280.862 746.233 281.346 746.468 281.912C746.702 282.477 746.764 283.1 746.644 283.701C746.524 284.301 746.229 284.853 745.795 285.286C745.362 285.719 744.809 286.014 744.208 286.134C743.606 286.253 742.983 286.192 742.416 285.957C741.85 285.723 741.365 285.326 741.025 284.817C740.684 284.308 740.502 283.709 740.502 283.097C740.502 282.275 740.829 281.488 741.41 280.907C741.992 280.326 742.78 280 743.603 280Z" fill="#FCAD15"/>
</g>
<path opacity="0.2" d="M58.07 788.14C197.837 788.14 311.14 674.837 311.14 535.07C311.14 395.303 197.837 282 58.07 282C-81.6967 282 -195 395.303 -195 535.07C-195 674.837 -81.6967 788.14 58.07 788.14Z" fill="#9199F2"/>
<path opacity="0.4" d="M58.0695 742.95C172.878 742.95 265.949 649.879 265.949 535.07C265.949 420.261 172.878 327.19 58.0695 327.19C-56.7395 327.19 -149.811 420.261 -149.811 535.07C-149.811 649.879 -56.7395 742.95 58.0695 742.95Z" fill="#9199F2"/>
<path opacity="0.6" d="M58.0709 697.76C147.922 697.76 220.761 624.921 220.761 535.07C220.761 445.219 147.922 372.38 58.0709 372.38C-31.7803 372.38 -104.619 445.219 -104.619 535.07C-104.619 624.921 -31.7803 697.76 58.0709 697.76Z" fill="#9199F2"/>
<path opacity="0.2" d="M1410.07 314.14C1549.84 314.14 1663.14 200.837 1663.14 61.07C1663.14 -78.6967 1549.84 -192 1410.07 -192C1270.3 -192 1157 -78.6967 1157 61.07C1157 200.837 1270.3 314.14 1410.07 314.14Z" fill="#9199F2"/>
<path opacity="0.4" d="M1410.07 268.95C1524.88 268.95 1617.95 175.879 1617.95 61.0704C1617.95 -53.7385 1524.88 -146.81 1410.07 -146.81C1295.26 -146.81 1202.19 -53.7385 1202.19 61.0704C1202.19 175.879 1295.26 268.95 1410.07 268.95Z" fill="#9199F2"/>
<path opacity="0.6" d="M1410.07 223.76C1499.92 223.76 1572.76 150.921 1572.76 61.0699C1572.76 -28.7813 1499.92 -101.62 1410.07 -101.62C1320.22 -101.62 1247.38 -28.7813 1247.38 61.0699C1247.38 150.921 1320.22 223.76 1410.07 223.76Z" fill="#9199F2"/>
</g>
<defs>
<clipPath id="clip0_909_2229">
<rect width="1440" height="563" fill="white"/>
</clipPath>
<clipPath id="clip1_909_2229">
<rect width="94.6286" height="24" fill="white" transform="translate(696 280)"/>
</clipPath>
</defs>
</svg>
