<svg width="563" height="460" viewBox="0 0 563 460" fill="none" xmlns="http://www.w3.org/2000/svg">
<path d="M240.903 308.688C192.173 292.481 95.8864 255.592 25.6003 295.846C-22.2889 323.275 8.3621 394.736 44.4099 410.402C80.4578 426.069 223.649 439.577 279.57 447.149C335.491 454.72 336.92 459.434 350.634 457.815C364.348 456.196 359.253 447.688 359.253 447.688C359.253 447.688 364.396 447.419 365.92 443.434C367.491 439.307 362.983 436.339 362.983 436.339C362.983 436.339 369.031 437.323 370.825 430.974C372.682 424.387 370.523 420.228 362.983 419.418C356.999 418.783 319.094 412.021 306.348 409.99C306.364 410.006 306.888 330.64 240.903 308.688Z" fill="#A861EB"/>
<path d="M362.999 437.15C362.951 437.15 362.904 437.15 362.84 437.134C360.11 436.594 350.793 435.674 350.697 435.658C350.269 435.61 349.935 435.229 349.983 434.785C350.031 434.341 350.396 434.039 350.856 434.071C351.237 434.102 360.332 435.007 363.142 435.563C363.57 435.642 363.856 436.071 363.761 436.499C363.697 436.896 363.364 437.15 362.999 437.15Z" fill="#200B42"/>
<path d="M353.998 449.054C351.395 449.054 349.363 448.737 349.22 448.721C348.791 448.657 348.49 448.245 348.553 447.816C348.617 447.387 349.03 447.086 349.458 447.149C349.506 447.149 354.823 447.959 359.077 446.927C359.506 446.832 359.934 447.086 360.03 447.514C360.125 447.943 359.871 448.372 359.442 448.467C357.649 448.911 355.696 449.054 353.998 449.054Z" fill="#200B42"/>
<path d="M307.126 305.768C362.983 283.879 464.873 249.482 537.556 289.736C587.064 317.165 555.381 388.625 518.095 404.292C480.809 419.959 380.015 441.134 322.189 448.689C264.364 456.245 262.887 460.975 248.697 459.356C234.506 457.737 239.776 449.229 239.776 449.229C239.776 449.229 234.459 448.959 232.887 444.975C231.268 440.848 235.919 437.88 235.919 437.88C235.919 437.88 230.427 440.229 227.157 434.451C224.744 430.181 227.76 423.832 235.919 421.752C243.046 419.927 278.681 419.959 294.475 411.53C275.935 423.61 231.935 335.244 307.126 305.768Z" fill="#A861EB"/>
<path d="M235.95 422.563C235.601 422.563 235.268 422.324 235.188 421.959C235.077 421.531 235.331 421.102 235.76 420.991C237.918 420.436 242.522 420.055 248.347 419.578C262.204 418.436 283.141 416.721 294.141 410.832C294.522 410.626 295.014 410.769 295.22 411.166C295.427 411.547 295.284 412.039 294.887 412.245C283.585 418.277 262.458 420.023 248.474 421.166C242.728 421.642 238.188 422.007 236.156 422.531C236.077 422.547 236.014 422.563 235.95 422.563Z" fill="#200B42"/>
<path d="M227.188 435.262C226.918 435.262 226.648 435.119 226.489 434.865C225.378 432.881 225.283 430.436 226.267 428.166C227.711 424.785 231.156 422.182 235.743 421.008C236.172 420.896 236.6 421.15 236.712 421.579C236.823 422.008 236.569 422.436 236.14 422.547C232.045 423.595 228.965 425.865 227.727 428.785C226.934 430.627 226.997 432.515 227.886 434.071C228.108 434.452 227.965 434.944 227.584 435.15C227.457 435.23 227.315 435.262 227.188 435.262Z" fill="#200B42"/>
<path d="M233.316 439.134C231.236 439.134 228.474 438.356 226.49 434.848C226.268 434.467 226.411 433.975 226.792 433.768C227.173 433.546 227.649 433.689 227.871 434.07C230.728 439.134 235.427 437.229 235.633 437.149C236.03 436.975 236.506 437.165 236.665 437.578C236.839 437.975 236.649 438.451 236.252 438.61C236.236 438.626 234.998 439.134 233.316 439.134Z" fill="#200B42"/>
<path d="M235.951 438.673C235.586 438.673 235.253 438.403 235.173 438.023C235.094 437.594 235.38 437.181 235.808 437.086C238.713 436.531 248.11 435.626 248.507 435.594C248.951 435.562 249.332 435.88 249.364 436.308C249.412 436.753 249.078 437.134 248.65 437.181C248.554 437.197 238.919 438.118 236.094 438.657C236.046 438.673 235.999 438.673 235.951 438.673Z" fill="#200B42"/>
<path d="M245.253 450.578C243.491 450.578 241.475 450.451 239.618 450.006C239.19 449.911 238.92 449.482 239.031 449.054C239.126 448.625 239.555 448.355 239.983 448.466C244.38 449.498 249.888 448.689 249.952 448.689C250.38 448.625 250.793 448.927 250.856 449.355C250.92 449.784 250.618 450.197 250.19 450.26C250.031 450.26 247.936 450.578 245.253 450.578Z" fill="#200B42"/>
<path d="M294.506 412.339C294.252 412.339 293.998 412.212 293.84 411.99C293.601 411.625 293.697 411.133 294.062 410.895L435.047 317.767C435.412 317.529 435.904 317.624 436.142 317.99C436.38 318.355 436.285 318.847 435.92 319.085L294.935 412.212C294.808 412.292 294.665 412.339 294.506 412.339Z" fill="#200B42"/>
<path d="M300.65 408.277C300.539 408.277 300.428 408.261 300.333 408.214L132.808 334.15C132.411 333.975 132.22 333.499 132.395 333.102C132.57 332.705 133.046 332.515 133.443 332.705L300.967 406.769C301.364 406.944 301.555 407.42 301.38 407.817C301.237 408.103 300.952 408.277 300.65 408.277Z" fill="#200B42"/>
<path d="M305.363 451.832C304.982 451.832 304.633 451.546 304.585 451.165C304.521 450.737 304.807 450.324 305.252 450.261C308.871 449.705 314.395 448.896 320.903 447.943C334.157 446.007 352.315 443.356 366.125 441.022C366.554 440.943 366.966 441.245 367.046 441.673C367.125 442.102 366.823 442.515 366.395 442.594C352.569 444.927 334.395 447.578 321.141 449.515C314.633 450.467 309.109 451.276 305.506 451.832C305.458 451.832 305.41 451.832 305.363 451.832Z" fill="#200B42"/>
<path d="M70.2205 307.212C133.983 229.132 155.856 135.782 193.205 84.8933C199.682 76.0678 213.11 63.6074 226.682 63.6074C249.825 67.544 247.999 96.4648 231.777 149.417C194.999 269.307 116.157 308.99 100.49 317.371C100.49 317.371 83.0142 327.847 72.5856 318.926C68.9348 316.085 66.2205 312.545 70.2205 307.212Z" fill="#A861EB"/>
<path d="M82.7904 332.338C91.1238 328.386 92.9016 334.227 103.171 336.386C113.441 338.545 119.251 335.306 118.568 329.767C117.886 324.227 103.171 319.909 93.5841 313.29C83.9967 306.671 78.584 301.671 66.5681 304.909C54.5521 308.148 36.7107 322.338 34.2822 330.719C31.8536 339.1 45.9013 336.116 45.9013 336.116C45.9013 336.116 38.3139 343.529 41.8536 348.402C45.3298 353.211 51.7743 351.402 58.4728 346.91C63.6474 343.465 70.9014 337.973 82.7904 332.338Z" fill="#A861EB"/>
<path d="M45.9013 336.909C45.695 336.909 45.4886 336.83 45.3299 336.655C45.0283 336.338 45.0442 335.83 45.3616 335.528C52.3934 328.83 63.8379 321.369 63.9491 321.29C64.3141 321.052 64.8062 321.163 65.0443 321.528C65.2824 321.893 65.1872 322.385 64.8062 322.623C64.6951 322.703 53.3617 330.099 46.441 336.687C46.2823 336.83 46.0918 336.909 45.9013 336.909Z" fill="#200B42"/>
<path d="M100.49 318.164C100.204 318.164 99.9342 318.005 99.7913 317.751C99.585 317.37 99.7278 316.878 100.125 316.672L101.22 316.085C178.839 274.846 214.649 202.56 231.03 149.195C231.157 148.782 231.602 148.544 232.014 148.671C232.427 148.798 232.665 149.242 232.538 149.655C216.078 203.306 180.062 275.989 101.95 317.481L100.855 318.069C100.744 318.132 100.617 318.164 100.49 318.164Z" fill="#200B42"/>
<path d="M58.4574 347.719C58.2035 347.719 57.9495 347.592 57.7908 347.37C57.5527 347.005 57.6479 346.513 58.013 346.275C58.8701 345.703 59.7749 345.084 60.7432 344.418C65.6797 341.021 72.4575 336.37 82.4417 331.64C82.8385 331.449 83.3147 331.624 83.5052 332.021C83.6957 332.418 83.5211 332.894 83.1242 333.084C73.2512 337.767 66.5368 342.37 61.6479 345.735C60.6638 346.402 59.759 347.037 58.886 347.608C58.759 347.672 58.6162 347.719 58.4574 347.719Z" fill="#200B42"/>
<path d="M47.5052 352.053C44.4099 352.053 42.4416 350.577 41.2035 348.879C40.9496 348.529 41.0289 348.021 41.3781 347.767C41.7273 347.513 42.2353 347.593 42.4892 347.942C45.9972 352.783 52.8703 349.704 58.029 346.26C58.3941 346.021 58.8862 346.117 59.1243 346.482C59.3624 346.847 59.2671 347.339 58.902 347.577C53.9814 350.863 50.2829 352.053 47.5052 352.053Z" fill="#200B42"/>
<path d="M41.839 349.212C41.5851 349.212 41.347 349.101 41.1882 348.879C37.2993 343.498 44.9978 335.879 45.3311 335.546C45.6486 335.244 46.1407 335.244 46.4581 335.561C46.7597 335.879 46.7597 336.371 46.4422 336.688C46.3788 336.752 39.3946 343.673 42.474 347.942C42.7279 348.292 42.6486 348.8 42.2994 349.054C42.1724 349.149 42.0136 349.212 41.839 349.212Z" fill="#200B42"/>
<path d="M40.8703 337.418C38.4258 337.418 35.7433 337.005 34.2829 335.433C33.1559 334.227 32.902 332.56 33.5052 330.481C33.6321 330.052 34.0607 329.814 34.4893 329.941C34.9179 330.068 35.156 330.497 35.029 330.925C34.5845 332.449 34.7274 333.576 35.4417 334.354C37.4417 336.513 43.537 335.799 45.7116 335.338C46.156 335.259 46.5687 335.529 46.6481 335.957C46.7275 336.386 46.4576 336.814 46.029 336.894C45.8703 336.926 43.5211 337.418 40.8703 337.418Z" fill="#200B42"/>
<path d="M34.2823 331.514C34.203 331.514 34.1395 331.498 34.0601 331.482C33.6315 331.355 33.3935 330.926 33.5204 330.498C35.9966 321.99 54.1079 307.45 66.3619 304.148C66.7905 304.037 67.219 304.275 67.3302 304.704C67.4413 305.132 67.1873 305.561 66.7746 305.672C54.9015 308.878 37.4093 322.799 35.0443 330.926C34.9331 331.275 34.6157 331.514 34.2823 331.514Z" fill="#200B42"/>
<path d="M118.57 330.561C118.173 330.561 117.84 330.259 117.776 329.862C117.395 326.799 111.395 323.783 105.03 320.592C100.951 318.545 96.7284 316.434 93.1252 313.942C92.7601 313.688 92.6808 313.195 92.9189 312.83C93.1728 312.465 93.6649 312.37 94.03 312.624C97.5379 315.053 101.713 317.132 105.744 319.164C112.792 322.703 118.887 325.751 119.363 329.656C119.411 330.084 119.109 330.481 118.665 330.545C118.633 330.561 118.602 330.561 118.57 330.561Z" fill="#200B42"/>
<path d="M109.141 337.864C107.284 337.864 105.22 337.626 102.998 337.165C102.57 337.07 102.3 336.657 102.379 336.229C102.474 335.8 102.887 335.515 103.316 335.61C109.204 336.848 113.919 336.324 116.284 334.165C117.49 333.07 117.982 331.626 117.776 329.864C117.728 329.435 118.03 329.038 118.474 328.975C118.919 328.911 119.3 329.229 119.363 329.673C119.633 331.927 118.951 333.896 117.379 335.34C115.554 337.007 112.712 337.864 109.141 337.864Z" fill="#200B42"/>
<path d="M103.173 337.18C103.125 337.18 103.062 337.181 103.014 337.165C99.03 336.323 96.2522 334.927 93.9982 333.8C90.3633 331.974 87.9665 330.752 83.1252 333.053C82.7283 333.244 82.2521 333.069 82.0617 332.673C81.8712 332.276 82.0458 331.8 82.4426 331.609C87.9823 328.99 90.9506 330.482 94.7125 332.371C96.9824 333.514 99.5538 334.815 103.332 335.609C103.76 335.704 104.03 336.117 103.951 336.546C103.871 336.927 103.538 337.18 103.173 337.18Z" fill="#200B42"/>
<path d="M70.2202 308.005C70.0455 308.005 69.8709 307.942 69.7122 307.831C69.3789 307.561 69.3154 307.053 69.6011 306.72C77.0932 297.561 84.4107 287.64 91.3631 277.259C91.6012 276.894 92.0933 276.799 92.4584 277.037C92.8235 277.275 92.9187 277.767 92.6806 278.132C85.6964 288.545 78.3472 298.497 70.8233 307.704C70.6646 307.91 70.4424 308.005 70.2202 308.005Z" fill="#200B42"/>
<path d="M66.5693 305.704C66.2201 305.704 65.9026 305.465 65.8074 305.116C65.6963 304.688 65.9502 304.259 66.3629 304.148C68.6963 303.513 70.8233 303.18 72.855 303.116C73.3154 303.132 73.6646 303.45 73.6805 303.878C73.6963 304.323 73.3471 304.688 72.9185 304.704C71.0138 304.767 69.0138 305.084 66.7915 305.688C66.6963 305.704 66.6328 305.704 66.5693 305.704Z" fill="#200B42"/>
<path d="M491.524 268.322C389.301 218.322 373.444 117.401 326.698 74.9721C318.587 67.607 304.682 57.1942 291.412 58.7498C269.507 67.226 271.777 93.6548 297.491 148.75C333.602 256.386 429.619 276.846 465 283.862C465 283.862 484.476 288.418 493.238 281.926C500.794 277.894 497.381 271.195 491.524 268.322Z" fill="#A861EB"/>
<path d="M490.301 291.671C481.348 289.465 480.761 295.544 471.142 299.703C461.507 303.862 458.412 301.402 457.189 297.957C455.332 292.687 461.761 287.338 469.84 278.941C477.92 270.544 482.221 264.56 494.65 265.354C507.079 266.147 527.491 271.814 531.142 279.719C534.999 288.037 524.253 288.036 524.253 288.036C524.253 288.036 532.825 292.671 530.333 298.164C527.888 303.576 523.444 303.433 513.92 300.195C508.015 298.179 503.079 294.83 490.301 291.671Z" fill="#A861EB"/>
<path d="M524.254 288.829C524.111 288.829 523.968 288.797 523.825 288.702C515.778 283.654 503.508 280.512 503.381 280.48C502.952 280.369 502.698 279.94 502.809 279.512C502.92 279.083 503.349 278.829 503.778 278.94C504.286 279.067 516.413 282.162 524.667 287.353C525.032 287.591 525.143 288.083 524.921 288.448C524.778 288.686 524.508 288.829 524.254 288.829Z" fill="#200B42"/>
<path d="M465 284.67C464.952 284.67 464.904 284.67 464.841 284.654C432.349 278.209 333.507 258.606 296.729 149.002C296.586 148.59 296.808 148.145 297.221 148.002C297.634 147.859 298.094 148.082 298.221 148.494C334.697 257.209 432.873 276.686 465.127 283.082C465.555 283.162 465.841 283.59 465.746 284.019C465.714 284.4 465.381 284.67 465 284.67Z" fill="#200B42"/>
<path d="M513.921 300.973C513.841 300.973 513.746 300.957 513.667 300.925C511.698 300.258 509.825 299.433 507.825 298.56C503.746 296.766 498.651 294.544 490.127 292.433C489.698 292.322 489.444 291.893 489.539 291.465C489.651 291.036 490.079 290.782 490.492 290.877C499.159 293.02 504.317 295.274 508.46 297.084C510.508 297.989 512.286 298.766 514.19 299.401C514.603 299.544 514.825 299.989 514.682 300.401C514.555 300.766 514.254 300.973 513.921 300.973Z" fill="#200B42"/>
<path d="M523.889 303.242C521.206 303.242 517.841 302.353 513.666 300.941C513.254 300.798 513.031 300.353 513.174 299.941C513.317 299.528 513.762 299.306 514.174 299.448C524.063 302.814 527.523 302.448 529.603 297.845C529.777 297.448 530.254 297.274 530.651 297.448C531.047 297.623 531.222 298.099 531.047 298.496C529.524 301.877 527.222 303.242 523.889 303.242Z" fill="#200B42"/>
<path d="M530.333 298.956C530.222 298.956 530.111 298.94 530 298.892C529.603 298.717 529.429 298.241 529.603 297.844C531.762 293.083 523.952 288.781 523.873 288.749C523.492 288.543 523.349 288.067 523.555 287.67C523.762 287.289 524.238 287.146 524.635 287.352C525.016 287.559 533.825 292.4 531.063 298.495C530.921 298.781 530.635 298.956 530.333 298.956Z" fill="#200B42"/>
<path d="M524.255 288.828C523.81 288.828 523.461 288.479 523.461 288.035C523.461 287.59 523.81 287.241 524.255 287.241C524.302 287.241 529.128 287.209 530.699 284.733C531.429 283.59 531.334 282.003 530.429 280.051C530.239 279.654 530.413 279.178 530.81 279.003C531.207 278.828 531.683 278.987 531.858 279.384C533.017 281.876 533.064 283.971 532.017 285.59C529.985 288.781 524.493 288.828 524.255 288.828Z" fill="#200B42"/>
<path d="M457.175 298.749C456.842 298.749 456.54 298.543 456.429 298.225C454.667 293.241 459.413 288.432 465.969 281.765C467.016 280.701 468.127 279.574 469.27 278.384C469.572 278.066 470.08 278.051 470.397 278.368C470.715 278.67 470.731 279.178 470.413 279.495C469.27 280.685 468.159 281.812 467.112 282.876C460.953 289.13 456.508 293.638 457.937 297.686C458.08 298.098 457.873 298.559 457.445 298.701C457.35 298.733 457.27 298.749 457.175 298.749Z" fill="#200B42"/>
<path d="M462.84 302.687C461.682 302.687 460.666 302.497 459.793 302.116C458.221 301.433 457.11 300.147 456.443 298.227C456.301 297.814 456.507 297.354 456.935 297.211C457.348 297.068 457.809 297.274 457.951 297.703C458.491 299.211 459.285 300.163 460.443 300.671C462.586 301.608 466.094 301.052 470.84 298.989C471.237 298.814 471.713 299.005 471.888 299.401C472.063 299.798 471.872 300.275 471.475 300.449C467.967 301.941 465.126 302.687 462.84 302.687Z" fill="#200B42"/>
<path d="M471.127 300.495C470.826 300.495 470.524 300.321 470.397 300.019C470.222 299.622 470.413 299.146 470.81 298.972C474.349 297.432 476.619 295.654 478.619 294.083C481.921 291.479 484.54 289.432 490.476 290.892C490.905 291.003 491.159 291.432 491.064 291.86C490.953 292.289 490.524 292.543 490.111 292.448C484.921 291.178 482.81 292.829 479.603 295.352C477.635 296.908 475.175 298.829 471.445 300.448C471.349 300.479 471.238 300.495 471.127 300.495Z" fill="#200B42"/>
<path d="M230.729 75.7508C222.538 87.1001 212.761 107.084 213.618 141.465C214.491 175.862 203.141 270.307 186.395 298.149C169.649 325.99 194.506 371.514 269.618 367.594C344.73 363.657 358.777 330.355 349.047 304.705C339.317 279.054 312.999 235.72 316.761 137.1C318.793 83.8778 308.46 71.5921 283.634 61.7666C258.808 51.9411 236.777 67.3698 230.729 75.7508Z" fill="#A861EB"/>
<path d="M318.65 197.56C318.253 197.56 317.92 197.258 317.872 196.846C315.65 176.02 315.206 153.226 316.555 129.099C316.587 128.655 316.936 128.337 317.396 128.353C317.841 128.385 318.174 128.75 318.142 129.194C316.809 153.242 317.253 175.941 319.46 196.687C319.507 197.115 319.19 197.512 318.761 197.56C318.714 197.56 318.682 197.56 318.65 197.56Z" fill="#200B42"/>
<path d="M208.665 209.324C208.618 209.324 208.586 209.324 208.538 209.324C208.11 209.261 207.792 208.864 207.856 208.435C212.237 176.404 214.586 140.356 213.554 120.752C213.538 120.308 213.872 119.943 214.3 119.911C214.792 119.911 215.11 120.229 215.142 120.657C216.173 140.34 213.824 176.515 209.427 208.626C209.38 209.039 209.046 209.324 208.665 209.324Z" fill="#200B42"/>
<path d="M286.237 19.4485C279.126 17.6072 274.745 -1.26595 256.824 0.0673885C238.904 1.40073 211.872 9.55952 209.586 26.3691C207.3 43.1788 222.348 76.1155 252.666 71.3694C288.237 65.798 308.761 50.2899 307.031 36.4962C305.126 21.4009 292.523 21.0834 286.237 19.4485Z" fill="#A861EB"/>
<path d="M261.094 41.3532C258.84 41.3532 257.126 40.496 257.03 40.4325C256.634 40.2262 256.491 39.75 256.681 39.369C256.888 38.9881 257.364 38.8293 257.745 39.0198C257.777 39.0357 260.824 40.5436 263.761 39.1944C264.65 38.7976 265.173 38.242 265.38 37.496C265.904 35.6388 264.3 33.242 264.284 33.2261C264.046 32.861 264.126 32.369 264.491 32.1309C264.856 31.8769 265.348 31.9722 265.586 32.3372C265.665 32.4642 267.618 35.3531 266.904 37.9246C266.57 39.1309 265.729 40.0516 264.411 40.6547C263.269 41.1627 262.126 41.3532 261.094 41.3532Z" fill="#200B42"/>
<path d="M278.444 42.195C276.19 42.195 274.475 41.3378 274.38 41.2743C273.983 41.068 273.84 40.5918 274.031 40.2108C274.237 39.8299 274.713 39.6711 275.094 39.8616C275.126 39.8775 278.174 41.3854 281.11 40.0362C281.999 39.6394 282.523 39.0838 282.729 38.3378C283.253 36.4806 281.65 34.0838 281.634 34.0679C281.396 33.7028 281.475 33.2108 281.84 32.9727C282.205 32.7187 282.698 32.814 282.936 33.179C283.015 33.306 284.967 36.1949 284.253 38.7664C283.92 39.9727 283.079 40.8934 281.761 41.4965C280.618 42.0203 279.475 42.195 278.444 42.195Z" fill="#200B42"/>
<path d="M276.299 31.0675C274.156 31.0675 272.125 30.2897 271.998 30.2421C271.585 30.0833 271.394 29.623 271.537 29.2103C271.68 28.7976 272.156 28.5913 272.569 28.75C273.648 29.1627 276.791 30.004 278.458 28.9722C279.268 28.4643 279.712 27.8928 279.807 27.2103C279.998 25.7817 278.617 24.3214 278.601 24.3055C278.299 23.9881 278.315 23.4801 278.633 23.1785C278.95 22.8769 279.458 22.8928 279.76 23.2103C279.839 23.2897 281.664 25.2262 281.379 27.4008C281.236 28.5754 280.537 29.5595 279.299 30.3214C278.426 30.877 277.347 31.0675 276.299 31.0675Z" fill="#200B42"/>
<path d="M213.49 15.3211C211.808 14.3687 210.046 14.1306 206.808 18.2259C203.697 22.1624 206.141 26.0672 206.141 26.0672C206.141 26.0672 205.109 26.6863 204.649 28.8291C204.141 31.2736 206.538 36.4641 208.712 36.7339C210.887 37.0038 212.49 36.6704 212.49 36.6704C212.49 36.6704 213.919 38.099 215.808 38.7657C218.951 39.8768 222.601 38.6546 224.046 36.6704C225.332 34.9085 224.998 32.9561 224.998 32.9561C224.998 32.9561 229.522 32.5434 231.554 29.3053C233.586 26.0672 231.713 22.3212 229.062 20.3846C226.84 18.7656 224.665 19.4322 224.665 19.4322C224.665 19.4322 225.141 15.4798 221.427 13.3211C218.109 11.4163 214.443 12.4163 213.49 15.3211Z" fill="#200B42"/>
<path d="M216.777 33.8933C207.904 34.0044 206.666 19.5758 214.967 17.9091C224.745 16.2266 227.015 33.687 216.777 33.8933ZM215.888 19.4329C209.634 19.798 209.158 30.4647 215.253 32.0679C223.634 34.4648 224.237 19.0202 215.888 19.4329Z" fill="#A861EB"/>
</svg>
