<svg width="657" height="405" viewBox="0 0 657 405" fill="none" xmlns="http://www.w3.org/2000/svg">
<path d="M513.688 348.86C550.07 348.86 626.695 344.7 652.709 260.599C665.747 218.459 650.56 172.082 585.368 138.328C519.654 104.295 528.821 80.9336 497.937 50.3463C458.832 11.6299 384.11 -8.23008 267.678 3.22204C117.245 18.0306 113.757 108.265 81.9471 135.897C29.5376 181.427 -6.80236 208.78 2.42886 273.69C11.6601 338.601 65.1118 349.997 186.755 348.848C308.41 347.722 513.688 348.86 513.688 348.86Z" fill="#5765D1"/>
<path d="M632.884 168.356C630.99 162.948 621.483 164.364 617.409 165.502C613.336 166.65 603.563 169.494 578.304 162.948C553.057 156.391 445.26 142.731 423.267 141.594C423.267 141.594 386.608 83.3295 360.541 59.734C349.949 50.1441 331.21 34.5437 310.035 55.0394C301.155 63.6257 295.104 69.7141 291.052 73.8846C287.213 71.3756 282.608 69.3015 277.45 67.6846C259.795 62.1537 216.628 79.2371 204.132 81.5119C191.646 83.7979 166.058 87.5 157.944 81.8019C149.829 76.1037 132.441 93.187 124.167 112.122C115.893 131.056 106.108 180.31 111.543 227C116.977 273.7 137.886 359.964 139.779 367.648C141.683 375.331 139.779 386.158 136.248 391.277C132.728 396.406 138.428 397.544 141.959 395.837C141.959 395.837 139.779 403.81 144.937 404.089C150.106 404.379 156.348 394.7 160.964 380.75C160.964 380.75 162.315 393.551 168.568 392.135C174.811 390.708 176.438 387.574 173.45 379.891C170.461 372.208 164.218 344.297 166.122 324.939C168.026 305.581 167.483 208.779 162.591 171.768C162.591 171.768 188.934 179.451 204.951 195.687C204.951 195.687 293.2 176.608 391.223 180.31C489.247 184.012 579.666 199.668 579.666 199.668C579.666 199.668 582.92 210.485 593.513 206.504C604.105 202.523 629.353 189.142 628.268 182.016C628.268 182.016 633.16 179.173 630.99 174.333C630.99 174.333 634.787 173.764 632.884 168.356ZM341.802 114.263L368.315 138.338C352.48 138.282 336.878 138.795 323.265 139.497L341.802 114.263Z" fill="#80C5FF"/>
<path d="M274.803 165.736H236.113C234.57 165.736 233.326 164.431 233.326 162.814V152.187C233.326 150.57 234.57 149.266 236.113 149.266H274.803C276.345 149.266 277.589 150.57 277.589 152.187V162.814C277.589 164.431 276.345 165.736 274.803 165.736Z" fill="#212640"/>
<path d="M274.803 162.802H236.113C234.57 162.802 233.326 161.497 233.326 159.88V152.197C233.326 150.58 234.57 149.275 236.113 149.275H274.803C276.345 149.275 277.589 150.58 277.589 152.197V159.88C277.589 161.486 276.345 162.802 274.803 162.802Z" fill="#212640"/>
<path d="M274.804 163.36H236.114C235.816 163.36 235.582 163.115 235.582 162.803C235.582 162.49 235.816 162.245 236.114 162.245H274.804C275.102 162.245 275.336 162.49 275.336 162.803C275.336 163.115 275.102 163.36 274.804 163.36Z" fill="#97D6D4"/>
<path d="M628.267 182.572C628.033 182.572 627.821 182.405 627.757 182.159C627.576 181.434 627.204 180.933 626.608 180.609C624.705 179.583 621.365 180.888 621.333 180.899C621.057 181.011 620.748 180.866 620.653 180.576C620.557 180.286 620.685 179.962 620.961 179.862C621.121 179.806 624.779 178.368 627.108 179.617C627.969 180.085 628.533 180.843 628.788 181.869C628.863 182.17 628.693 182.471 628.406 182.549C628.363 182.561 628.31 182.572 628.267 182.572Z" fill="#2D72AC"/>
<path d="M630.989 174.891C630.787 174.891 630.596 174.768 630.511 174.568C629.564 172.471 623.268 172.873 621.907 173.296C621.63 173.386 621.333 173.218 621.248 172.928C621.162 172.638 621.322 172.326 621.598 172.237C622.726 171.88 630.064 170.999 631.468 174.099C631.595 174.378 631.478 174.712 631.213 174.846C631.149 174.869 631.064 174.891 630.989 174.891Z" fill="#2D72AC"/>
<path d="M291.053 73.8857C300.379 79.9519 305.282 88.5828 302.974 99.4997C299.72 114.922 267.677 142.442 267.677 142.442C267.677 142.442 269.123 163.596 266.953 165.871C264.784 168.145 261.7 168.067 261.7 168.067C261.7 168.067 264.412 169.773 263.327 173.766C262.242 177.758 255.457 175.193 252.734 167.499C250.012 159.804 250.788 150.081 250.788 150.081L241.334 149.278C241.334 149.278 242.961 143.87 250.565 139.599C250.565 139.599 251.501 116.505 253.947 106.257L232.921 131.057C232.921 131.057 208.759 122.515 191.381 98.3177" fill="#80C5FF"/>
<path d="M260.912 176.186C258.094 176.186 254.138 173.053 252.245 167.7C249.862 160.954 250.107 152.802 250.224 150.606L241.291 149.847C241.131 149.836 240.982 149.747 240.897 149.602C240.812 149.457 240.78 149.279 240.833 149.123C240.897 148.9 242.577 143.569 250.054 139.265C250.171 136.645 251.032 118.435 252.989 108.243L233.325 131.437C233.187 131.604 232.963 131.671 232.761 131.593C232.517 131.504 208.237 122.717 190.965 98.6641C190.785 98.4188 190.838 98.0731 191.072 97.8835C191.306 97.694 191.646 97.7497 191.816 97.995C207.801 120.253 229.826 129.285 232.782 130.422L253.574 105.901C253.734 105.712 253.999 105.656 254.223 105.778C254.435 105.901 254.552 106.158 254.489 106.403C252.085 116.483 251.128 139.399 251.128 139.633C251.117 139.834 251.011 140.012 250.851 140.101C245.098 143.335 242.843 147.26 242.141 148.799L250.862 149.546C251 149.557 251.128 149.624 251.224 149.736C251.319 149.847 251.362 149.992 251.351 150.137C251.341 150.238 250.628 159.839 253.266 167.31C255.031 172.294 258.636 175.149 261.05 175.071C261.699 175.049 262.529 174.77 262.848 173.61C263.816 170.075 261.476 168.559 261.455 168.548C261.253 168.414 261.146 168.157 261.221 167.912C261.284 167.667 261.508 167.499 261.742 167.511C261.763 167.511 264.624 167.555 266.602 165.481C268.059 163.953 267.729 150.561 267.176 142.488C267.166 142.309 267.24 142.131 267.368 142.019C267.687 141.741 299.305 114.443 302.485 99.3889C304.601 89.3641 300.56 80.7221 290.797 74.366C290.552 74.1987 290.467 73.8642 290.627 73.5966C290.786 73.3401 291.116 73.262 291.36 73.4181C301.538 80.0419 305.75 89.0965 303.516 99.6231C300.368 114.565 271.281 140.068 268.25 142.688C268.527 146.848 269.527 163.987 267.346 166.262C265.911 167.767 264.135 168.313 262.965 168.514C263.741 169.484 264.592 171.257 263.869 173.911C263.496 175.294 262.476 176.119 261.093 176.175C261.019 176.186 260.965 176.186 260.912 176.186Z" fill="#2D72AC"/>
<path d="M261.699 168.625C261.636 168.625 261.572 168.613 261.497 168.58C256.509 166.484 258.115 152.244 258.317 150.627C258.36 150.326 258.615 150.103 258.913 150.147C259.2 150.192 259.413 150.471 259.37 150.772C258.86 154.931 258.307 166.049 261.891 167.554C262.167 167.666 262.295 167.989 262.189 168.279C262.114 168.491 261.912 168.625 261.699 168.625Z" fill="#2D72AC"/>
<path d="M323.266 140.054C323.064 140.054 322.883 139.942 322.798 139.753C322.702 139.563 322.723 139.329 322.851 139.151L341.388 113.916C341.473 113.793 341.611 113.715 341.76 113.704C341.898 113.682 342.047 113.738 342.164 113.838L368.677 137.913C368.848 138.069 368.901 138.314 368.826 138.526C368.752 138.749 368.55 138.883 368.326 138.883C354.32 138.816 339.165 139.229 323.308 140.043C323.287 140.054 323.276 140.054 323.266 140.054ZM341.877 115.065L324.382 138.872C339.303 138.125 353.586 137.712 366.88 137.768L341.877 115.065Z" fill="#2D72AC"/>
<path d="M423.268 142.153C423.246 142.153 423.225 142.153 423.193 142.153C412.484 140.647 391.852 138.897 368.774 138.897C368.614 138.897 368.465 138.897 368.316 138.897H367.412C353.598 138.908 342.686 138.919 323.288 140.056C322.979 140.101 322.745 139.833 322.724 139.532C322.703 139.22 322.937 138.963 323.224 138.941C342.643 137.804 353.576 137.793 367.402 137.781H368.306C391.575 137.759 412.516 139.521 423.332 141.038C423.619 141.082 423.831 141.361 423.789 141.662C423.757 141.952 423.534 142.153 423.268 142.153Z" fill="#2D72AC"/>
<path d="M279.076 143.29C278.81 143.29 278.576 143.078 278.544 142.788C278.512 142.476 278.725 142.209 279.023 142.175C279.204 142.153 297.921 140.224 323.243 138.941C323.573 138.897 323.786 139.164 323.796 139.466C323.807 139.778 323.584 140.034 323.296 140.045C298.006 141.328 279.321 143.257 279.14 143.279C279.108 143.29 279.097 143.29 279.076 143.29Z" fill="#2D72AC"/>
<path d="M141.959 396.396C141.768 396.396 141.587 396.296 141.491 396.106C141.353 395.839 141.449 395.493 141.704 395.348C146.49 392.627 149.701 384.286 150.658 377.673C150.701 377.372 150.967 377.161 151.265 377.205C151.552 377.25 151.754 377.54 151.711 377.841C150.712 384.71 147.319 393.43 142.214 396.329C142.129 396.374 142.044 396.396 141.959 396.396Z" fill="#2D72AC"/>
<path d="M160.965 381.307C160.71 381.307 160.487 381.117 160.444 380.838C160.019 378.263 161.54 373.769 161.603 373.568C161.699 373.278 162.007 373.122 162.284 373.233C162.561 373.334 162.709 373.657 162.603 373.947C162.592 373.992 161.114 378.363 161.497 380.649C161.55 380.95 161.348 381.24 161.061 381.296C161.029 381.307 160.997 381.307 160.965 381.307Z" fill="#2D72AC"/>
<path d="M238.685 208.032C231.719 208.032 225.795 207.464 223.69 206.282C222.871 205.824 222.828 205.178 223.051 204.72C223.488 203.851 225.7 202.936 228.826 202.1C221.807 200.65 215.883 198.755 214.161 197.082C211.544 194.551 204.472 193.458 196.294 192.187C190.413 191.272 183.755 190.235 177.81 188.484C166.76 185.217 161.294 161.075 157.306 143.457C156.093 138.104 155.051 133.476 154.051 130.421C149.936 117.798 136.238 104.829 136.099 104.696C135.876 104.495 135.865 104.138 136.057 103.904C136.259 103.67 136.589 103.659 136.812 103.859C136.95 103.993 150.85 117.151 155.062 130.053C156.072 133.153 157.125 137.803 158.348 143.189C162.049 159.559 167.654 184.303 178.108 187.403C183.989 189.142 190.615 190.168 196.453 191.072C204.812 192.365 212.034 193.491 214.884 196.257C216.681 197.996 223.583 200.015 231.411 201.464C240.886 199.346 255.35 197.985 258.445 199.702C259.338 200.204 259.625 201.007 259.189 201.866C258.658 202.936 257.275 203.65 254.957 204.062C249.543 205.033 239.972 204.185 231.411 202.602C227.284 203.538 224.434 204.52 224.019 205.178C224.051 205.2 224.104 205.244 224.179 205.289C229.262 208.133 259.306 207.118 267.878 202.992C268.984 202.457 269.622 201.91 269.612 201.487C269.59 200.327 265.975 198.799 263.071 197.573C258.785 195.766 254.733 194.049 255.18 191.629C255.648 189.087 261.04 189.064 267.878 189.053C274.323 189.031 282.331 189.009 283.544 186.199C285.979 180.534 281.863 164.61 280.63 163.35C279.162 163.283 277.886 163.372 277.865 163.372C277.545 163.395 277.322 163.16 277.301 162.848C277.28 162.536 277.503 162.28 277.801 162.257C277.854 162.257 279.205 162.168 280.779 162.235C281.204 162.257 281.491 162.648 281.693 162.993C283.373 165.859 286.936 181.047 284.522 186.656C283.023 190.124 275.333 190.146 267.889 190.168C262.827 190.179 256.531 190.202 256.233 191.841C255.956 193.357 260.125 195.13 263.475 196.547C267.315 198.175 270.643 199.58 270.686 201.464C270.707 202.401 269.941 203.237 268.336 204.007C262.858 206.65 249.511 208.032 238.685 208.032ZM234.399 201.988C242.099 203.226 250.15 203.817 254.797 202.981C257.201 202.546 258.009 201.866 258.264 201.364C258.392 201.119 258.328 201.029 258.296 200.985C257.711 200.07 253.308 199.557 244.79 200.45C241.099 200.829 237.526 201.386 234.399 201.988Z" fill="#0F1141"/>
<path d="M163.378 82.3395C174.056 79.3064 176.832 67.832 170.983 58.4986C164.325 47.894 151.914 47.9386 145.182 56.8594C137.652 66.8396 142.81 88.1715 163.378 82.3395Z" fill="#212640"/>
<path d="M151.456 55.2288C146.532 55.4406 140.055 43.654 128.825 48.2036C117.605 52.7644 101.854 63.7704 103.662 75.5348C105.47 87.2991 121.529 106.367 140.045 96.9782C161.772 85.9722 171.907 71.3531 168.1 62.4323C163.952 52.6752 155.806 55.0392 151.456 55.2288Z" fill="#80C5FF"/>
<path d="M124.666 81.9906C124.666 81.9906 111.266 66.0446 115.796 59.9784C120.327 53.9011 133.525 47.177 133.525 47.177C133.525 47.177 132.387 44.8688 127.495 46.7198C122.603 48.5709 106.788 57.8932 106.927 65.2975C107.065 72.7018 113.691 81.9906 117.785 86.5067C121.731 90.8333 128.558 86.3729 124.666 81.9906Z" fill="#212640"/>
<path d="M129.601 111.129C140.279 108.096 143.054 96.6211 137.205 87.2877C130.548 76.683 118.137 76.7276 111.405 85.6485C103.875 95.6286 109.033 116.961 129.601 111.129Z" fill="#212640"/>
<path d="M127.698 104.294C127.698 104.294 130.846 101.673 128.517 94.4025C126.55 88.2695 115.521 78.4008 110.076 87.79" stroke="#97D6D4" stroke-miterlimit="10" stroke-linecap="round" stroke-linejoin="round"/>
<path d="M138.865 71.1322C137.727 71.1322 136.876 70.8088 136.812 70.7865C136.536 70.675 136.397 70.3627 136.493 70.0728C136.599 69.7829 136.908 69.6379 137.174 69.7383C137.195 69.7495 139.343 70.5412 141.194 69.3592C141.747 69.0023 142.055 68.5674 142.14 68.0322C142.342 66.6941 141.087 65.1552 141.077 65.1441C140.885 64.9099 140.907 64.5642 141.13 64.3523C141.353 64.1516 141.683 64.1739 141.874 64.4081C141.938 64.4862 143.459 66.3484 143.193 68.1995C143.066 69.0692 142.576 69.7717 141.757 70.307C140.768 70.9537 139.737 71.1322 138.865 71.1322Z" fill="#212640"/>
<path d="M150.478 70.2943C149.34 70.2943 148.489 69.9709 148.425 69.9486C148.149 69.8371 148.011 69.5249 148.106 69.2349C148.213 68.945 148.511 68.8001 148.787 68.9004C148.808 68.9116 150.957 69.7033 152.807 68.5213C153.36 68.1644 153.669 67.7296 153.754 67.1943C153.956 65.8562 152.701 64.3173 152.69 64.3062C152.499 64.072 152.52 63.7263 152.743 63.5144C152.967 63.3137 153.296 63.336 153.488 63.5702C153.552 63.6483 155.072 65.5105 154.806 67.3616C154.679 68.2313 154.19 68.9338 153.371 69.4691C152.382 70.1047 151.339 70.2943 150.478 70.2943Z" fill="#212640"/>
<path d="M148.085 62.7003C146.979 62.7003 146.043 62.455 145.969 62.4327C145.682 62.3546 145.511 62.0535 145.586 61.7525C145.66 61.4514 145.947 61.273 146.235 61.351C146.979 61.5517 149.149 61.8751 150.17 61.0165C150.669 60.5928 150.925 60.1579 150.925 59.6672C150.935 58.6636 149.904 57.7492 149.893 57.7381C149.67 57.5374 149.638 57.1917 149.819 56.9575C150.01 56.7233 150.34 56.6899 150.563 56.8795C150.616 56.9352 151.988 58.1284 151.977 59.6672C151.967 60.4924 151.584 61.2395 150.829 61.8751C150.084 62.5219 149.021 62.7003 148.085 62.7003Z" fill="#212640"/>
</svg>
