<svg width="45" height="72" viewBox="0 0 45 72" fill="none" xmlns="http://www.w3.org/2000/svg">
<rect width="45" height="72" rx="22.5" fill="#9199F2"/>
<path d="M21.7037 54.6108C21.8411 54.7652 22.0088 54.8885 22.1961 54.973C22.3834 55.0574 22.5861 55.101 22.791 55.101C22.9959 55.101 23.1985 55.0574 23.3858 54.973C23.5731 54.8885 23.7409 54.7652 23.8783 54.6108L23.8892 54.599L29.293 48.5321C29.4817 48.3195 29.5796 48.0395 29.565 47.7537C29.5504 47.4679 29.4246 47.1997 29.2152 47.008L29.1996 46.993C28.9902 46.8014 28.7144 46.7021 28.4328 46.7169C28.1513 46.7318 27.887 46.8595 27.6982 47.072L23.8845 51.351L23.8845 17.1061C23.8845 16.8127 23.7697 16.5314 23.5654 16.324C23.361 16.1165 23.0839 16 22.7949 16H22.7731C22.4841 16 22.2069 16.1165 22.0026 16.324C21.7982 16.5314 21.6834 16.8127 21.6834 17.1061L21.6834 51.3486L17.8697 47.0697C17.6809 46.8571 17.4167 46.7294 17.1351 46.7146C16.8536 46.6998 16.5778 46.7991 16.3683 46.9907L16.352 47.0057C16.1426 47.1973 16.0168 47.4655 16.0022 47.7513C15.9876 48.0371 16.0854 48.3171 16.2742 48.5297L21.678 54.5966L21.7037 54.6108Z" fill="white"/>
<path d="M21.7037 54.6108C21.8411 54.7652 22.0088 54.8885 22.1961 54.973C22.3834 55.0574 22.5861 55.101 22.791 55.101C22.9959 55.101 23.1985 55.0574 23.3858 54.973C23.5731 54.8885 23.7409 54.7652 23.8783 54.6108L23.8892 54.599L29.293 48.5321C29.4817 48.3195 29.5796 48.0395 29.565 47.7537C29.5504 47.4679 29.4246 47.1997 29.2152 47.008L29.1996 46.993C28.9902 46.8014 28.7144 46.7021 28.4328 46.7169C28.1513 46.7318 27.887 46.8595 27.6982 47.072L23.8845 51.351L23.8845 17.1061C23.8845 16.8127 23.7697 16.5314 23.5654 16.324C23.361 16.1165 23.0839 16 22.7949 16H22.7731C22.4841 16 22.2069 16.1165 22.0026 16.324C21.7982 16.5314 21.6834 16.8127 21.6834 17.1061L21.6834 51.3486L17.8697 47.0697C17.6809 46.8571 17.4167 46.7294 17.1351 46.7146C16.8536 46.6998 16.5778 46.7991 16.3683 46.9907L16.352 47.0057C16.1426 47.1973 16.0168 47.4655 16.0022 47.7513C15.9876 48.0371 16.0854 48.3171 16.2742 48.5297L21.678 54.5966L21.7037 54.6108Z" stroke="white"/>
</svg>
